<?xml version="1.0" encoding="UTF-8"?>
<svg width="48" height="48" version="1.1" viewBox="0 0 14 14" xmlns="http://www.w3.org/2000/svg">
 <path d="m33.35 30q-0.75 0-1.225-0.475t-0.475-1.225v-8.6q0-0.75 0.475-1.225t1.225-0.475h6.95q0.75 0 1.225 0.475t0.475 1.225v2.3h-2.4v-1.6h-5.55v7.2h5.55v-1.6h2.4v2.3q0 0.75-0.475 1.225t-1.225 0.475zm-14.35 0v-12h8.65q0.75 0 1.225 0.475t0.475 1.225v2.6q0 0.75-0.475 1.225t-1.225 0.475q0.75 0 1.225 0.475t0.475 1.225v2.6q0 0.75-0.475 1.225t-1.225 0.475zm2.4-7.2h5.55v-2.4h-5.55zm0 4.8h5.55v-2.4h-5.55zm-15.4 2.4v-10.3q0-0.75 0.475-1.225t1.225-0.475h6.95q0.75 0 1.225 0.475t0.475 1.225v10.3h-2.4v-3.85h-5.55v3.85zm2.4-6.25h5.55v-3.35h-5.55z"/>
 <path d="m10.636 14q-0.29167 0-0.47639-0.18472t-0.18472-0.47639v-3.3444q0-0.29167 0.18472-0.47639t0.47639-0.18472h2.7028q0.29167 0 0.47639 0.18472t0.18472 0.47639v0.42778q0 0.19444-0.13611 0.33056-0.13611 0.13611-0.33056 0.13611-0.19444 0-0.33055-0.13611t-0.13611-0.33056v-0.15556h-2.1583v2.8h2.1583v-0.15556q0-0.19444 0.13611-0.33056 0.13611-0.13611 0.33055-0.13611 0.19445 0 0.33056 0.13611t0.13611 0.33056v0.42778q0 0.29167-0.18472 0.47639t-0.47639 0.18472zm-4.9972 0q-0.25278 0-0.41806-0.16528t-0.16528-0.41806v-3.5q0-0.25278 0.16528-0.41806t0.41806-0.16528h2.7806q0.29167 0 0.47639 0.18472t0.18472 0.47639v1.0111q0 0.29167-0.18472 0.47639t-0.47639 0.18472q0.29167 0 0.47639 0.18472t0.18472 0.47639v1.0111q0 0.29167-0.18472 0.47639t-0.47639 0.18472zm0.35-2.8h2.1583v-0.93333h-2.1583zm0 1.8667h2.1583v-0.93333h-2.1583zm-5.5222 0.93333q-0.19444 0-0.33056-0.13611-0.13611-0.13611-0.13611-0.33056v-3.5389q0-0.29167 0.18472-0.47639t0.47639-0.18472h2.7028q0.29167 0 0.47639 0.18472t0.18472 0.47639v3.5389q0 0.19444-0.13611 0.33056-0.13611 0.13611-0.33056 0.13611-0.19444 0-0.33056-0.13611-0.13611-0.13611-0.13611-0.33056v-1.0306h-2.1583v1.0306q0 0.19444-0.13611 0.33056-0.13611 0.13611-0.33056 0.13611zm0.46667-2.4306h2.1583v-1.3028h-2.1583z" stroke-width=".38889"/>
 <g stroke-width=".6125">
  <path d="m5.3958 7.2857c0 0.67681-0.686 1.225-1.5312 1.225s-1.5313-0.54819-1.5313-1.225c0-0.6762 0.686-1.225 1.5313-1.225s1.5312 0.5488 1.5312 1.225zm5.5125-1.225c0 0.67681-0.686 1.225-1.5312 1.225-0.84525 0-1.5312-0.54819-1.5312-1.225 0-0.67681 0.686-1.225 1.5312-1.225 0.84525 0 1.5312 0.54819 1.5312 1.225z"/>
  <path d="m10.296 6.0607v-5.5125h0.6125v5.5125zm-4.9-4.9v6.125h-0.6125v-6.125z" fill-rule="evenodd"/>
  <path d="m4.7833 1.1025a0.6125 0.6125 0 0 1 0.55125-0.60944l4.9-0.49a0.6125 0.6125 0 0 1 0.67375 0.60944v0.54819l-6.125 0.6125z"/>
 </g>
</svg>
